<?xml version="1.0" standalone="no"?>
<!DOCTYPE svg PUBLIC "-//W3C//DTD SVG 20010904//EN"
 "http://www.w3.org/TR/2001/REC-SVG-20010904/DTD/svg10.dtd">
<svg version="1.0" xmlns="http://www.w3.org/2000/svg"
 width="1772.000000pt" height="1772.000000pt" viewBox="0 0 1772.000000 1772.000000"
 preserveAspectRatio="xMidYMid meet">
<metadata>
Created by potrace 1.11, written by Peter Selinger 2001-2013
</metadata>
<g transform="translate(0.000000,1772.000000) scale(0.100000,-0.100000)"
fill="#000000" stroke="none">
<path d="M15985 17669 c-22 -4 -58 -10 -80 -14 -22 -3 -47 -8 -55 -10 -8 -2
-31 -7 -50 -10 -19 -3 -84 -15 -144 -26 -60 -11 -121 -22 -135 -24 -14 -2 -89
-15 -166 -29 -135 -24 -166 -30 -230 -41 -16 -3 -52 -10 -80 -15 -27 -5 -63
-12 -80 -15 -16 -3 -70 -12 -120 -20 -49 -9 -173 -31 -275 -50 -206 -38 -228
-42 -285 -50 -22 -4 -56 -10 -75 -15 -19 -5 -53 -11 -75 -15 -100 -15 -169
-26 -174 -29 -3 -2 -28 -7 -55 -10 -27 -4 -52 -9 -55 -10 -3 -2 -26 -7 -51
-10 -25 -3 -56 -8 -70 -11 -14 -4 -36 -8 -50 -10 -47 -7 -95 -15 -175 -30
-137 -25 -348 -63 -395 -71 -25 -4 -47 -8 -50 -9 -26 -5 -82 -15 -110 -20 -19
-3 -61 -10 -92 -16 -102 -18 -113 -20 -136 -24 -12 -2 -50 -9 -85 -15 -34 -7
-72 -14 -84 -16 -13 -2 -35 -6 -50 -9 -16 -3 -44 -8 -63 -11 -19 -3 -42 -7
-50 -9 -8 -2 -31 -7 -50 -10 -19 -3 -60 -10 -90 -15 -30 -6 -67 -12 -82 -15
-16 -3 -40 -7 -55 -10 -107 -19 -142 -25 -168 -30 -42 -7 -80 -14 -150 -27
-33 -6 -69 -12 -80 -14 -11 -1 -45 -7 -75 -13 -106 -20 -115 -22 -150 -26 -19
-3 -46 -7 -60 -10 -56 -12 -79 -16 -160 -30 -47 -9 -97 -18 -110 -20 -21 -4
-345 -62 -445 -80 -16 -2 -41 -7 -55 -10 -42 -8 -133 -24 -175 -31 -22 -3 -59
-10 -83 -15 -23 -5 -59 -12 -80 -15 -20 -3 -109 -19 -197 -34 -88 -16 -176
-32 -195 -35 -19 -3 -48 -8 -65 -12 -16 -3 -37 -7 -45 -8 -8 -1 -67 -12 -130
-23 -63 -12 -131 -24 -150 -27 -30 -5 -172 -31 -221 -40 -9 -2 -32 -6 -50 -9
-19 -3 -47 -8 -64 -11 -45 -8 -136 -24 -170 -30 -16 -3 -52 -10 -80 -15 -27
-5 -68 -12 -90 -16 -22 -3 -47 -7 -55 -9 -8 -3 -32 -7 -54 -11 -21 -3 -48 -8
-60 -10 -22 -4 -53 -10 -108 -20 -45 -7 -187 -33 -218 -38 -70 -14 -259 -47
-290 -52 -19 -3 -80 -14 -135 -24 -55 -11 -115 -22 -132 -25 -18 -3 -48 -7
-65 -10 -18 -3 -40 -8 -48 -10 -8 -2 -33 -7 -55 -10 -23 -3 -52 -7 -65 -10
-35 -7 -140 -26 -170 -31 -14 -3 -88 -16 -165 -30 -118 -21 -265 -47 -390 -69
-16 -3 -41 -8 -55 -10 -14 -3 -38 -8 -55 -10 -29 -5 -168 -31 -210 -39 -11 -2
-40 -7 -65 -11 -84 -14 -95 -16 -195 -35 -55 -10 -120 -21 -145 -25 -25 -3
-52 -8 -60 -10 -8 -2 -31 -7 -50 -10 -19 -3 -57 -10 -85 -15 -75 -15 -265 -49
-310 -55 -22 -4 -47 -8 -55 -10 -8 -3 -33 -7 -55 -10 -22 -4 -47 -8 -55 -10
-8 -3 -67 -13 -130 -24 -108 -19 -140 -25 -200 -36 -14 -3 -43 -8 -65 -11 -22
-3 -98 -17 -170 -30 -71 -14 -146 -27 -165 -30 -19 -3 -58 -9 -86 -15 -28 -5
-64 -12 -80 -15 -16 -2 -51 -9 -79 -14 -27 -5 -63 -12 -80 -15 -16 -2 -55 -9
-85 -15 -30 -5 -71 -12 -90 -15 -19 -3 -46 -8 -60 -10 -14 -3 -36 -7 -50 -10
-14 -3 -36 -7 -50 -10 -14 -2 -41 -7 -60 -10 -19 -3 -48 -8 -65 -12 -16 -3
-39 -7 -50 -9 -11 -1 -110 -19 -220 -38 -110 -20 -216 -39 -235 -42 -19 -3
-42 -7 -50 -9 -12 -4 -280 -52 -330 -60 -17 -2 -52 -9 -195 -35 -55 -10 -113
-21 -130 -24 -16 -3 -68 -12 -115 -20 -47 -8 -101 -17 -120 -21 -31 -5 -95
-17 -220 -40 -19 -4 -48 -9 -65 -11 -16 -3 -91 -16 -165 -30 -74 -14 -148 -27
-165 -29 -16 -2 -39 -6 -50 -9 -49 -10 -209 -39 -290 -52 -16 -2 -54 -9 -84
-15 -30 -6 -64 -12 -75 -14 -24 -3 -89 -15 -120 -21 -11 -2 -50 -9 -86 -15
-36 -5 -83 -14 -105 -19 -22 -5 -56 -11 -75 -14 -19 -3 -45 -8 -56 -10 -12 -2
-39 -7 -60 -10 -22 -4 -46 -8 -54 -11 -8 -2 -33 -6 -55 -10 -102 -14 -221 -38
-229 -46 -9 -8 -14 -13626 -5 -13632 74 -58 480 -369 502 -385 18 -12 39 -28
47 -35 8 -7 111 -86 228 -176 l214 -163 46 6 c26 3 58 8 72 11 180 31 322 56
354 61 21 3 48 8 60 10 11 3 33 7 48 9 15 2 53 9 85 14 32 6 74 13 93 16 39 6
134 23 166 29 12 2 39 7 60 10 22 4 62 11 89 16 28 5 66 12 85 15 19 2 49 7
65 10 17 3 44 7 60 10 17 3 40 7 51 9 12 2 38 7 59 10 21 4 90 16 154 27 64
12 125 22 136 24 11 1 34 5 50 8 17 3 50 9 75 12 25 3 52 8 60 10 8 2 29 6 45
9 61 10 331 56 355 61 13 3 40 7 60 10 20 3 47 8 60 10 14 3 41 8 60 11 19 2
46 7 60 10 14 2 39 7 55 10 17 2 55 9 85 14 30 5 71 12 90 15 19 3 59 10 88
16 29 6 65 12 80 14 25 4 356 60 412 71 14 2 66 11 115 19 50 8 101 17 115 20
14 3 45 8 70 11 25 3 53 8 62 10 10 3 28 7 40 9 13 2 66 11 118 20 52 9 110
18 129 21 18 3 43 8 55 10 11 2 48 9 81 14 33 6 71 12 85 15 53 10 326 57 351
60 26 4 318 54 354 61 19 4 289 50 345 59 37 6 202 34 225 39 32 6 108 19 130
22 20 2 39 6 145 24 61 11 75 14 170 30 99 17 111 19 170 30 30 5 72 12 94 16
21 3 48 8 60 10 32 6 65 12 136 24 61 9 91 15 150 26 14 2 41 7 60 10 19 3 46
7 60 10 14 2 41 7 60 10 19 3 41 7 48 10 8 2 37 7 65 10 29 3 58 7 65 9 7 3
54 11 105 20 50 8 103 17 117 19 14 3 52 9 85 15 95 16 119 21 140 25 11 2 43
7 70 11 28 5 52 9 55 10 3 0 26 4 51 8 58 10 84 14 184 32 44 8 96 17 115 20
19 3 71 12 115 20 44 8 97 17 119 21 21 3 46 7 55 9 9 1 36 6 61 10 25 4 54 9
65 11 11 3 36 7 55 10 19 3 85 14 145 24 61 11 126 22 145 25 19 4 60 11 90
16 30 6 64 11 75 13 11 2 53 9 93 16 71 12 113 9 263 -15 14 -3 41 -7 60 -9
91 -13 256 -37 275 -40 12 -2 45 -7 75 -11 30 -3 61 -8 69 -10 8 -2 40 -7 70
-10 30 -3 62 -8 70 -10 8 -2 40 -7 70 -10 30 -3 64 -8 75 -10 11 -3 37 -7 58
-10 20 -3 52 -7 70 -10 70 -11 234 -34 277 -40 25 -3 54 -8 65 -10 11 -1 45
-6 75 -10 30 -4 66 -9 80 -11 60 -10 247 -37 335 -49 28 -4 61 -9 75 -11 14
-2 45 -7 70 -10 25 -3 52 -8 62 -9 9 -2 38 -6 65 -10 26 -4 59 -8 73 -11 14
-2 120 -17 236 -33 116 -17 224 -32 240 -35 26 -4 77 -12 144 -21 14 -2 45 -7
70 -10 25 -3 56 -8 70 -10 14 -2 61 -9 105 -15 109 -16 136 -20 165 -25 14 -3
45 -7 70 -10 25 -3 122 -17 215 -30 94 -14 188 -27 210 -30 22 -3 54 -8 70
-12 17 -3 41 -7 55 -8 31 -3 128 -16 155 -21 11 -2 40 -7 65 -10 25 -3 56 -7
70 -10 14 -2 45 -7 70 -9 25 -3 68 -10 95 -15 28 -5 75 -12 105 -16 30 -3 64
-8 75 -10 20 -4 43 -8 135 -19 66 -9 102 -14 130 -19 36 -7 88 -14 145 -21 28
-3 59 -8 70 -10 23 -5 22 -53 25 1223 1 254 2 462 4 462 1 0 51 9 112 21 180
33 267 49 304 55 19 3 42 7 52 10 9 3 40 9 70 14 29 5 67 12 83 15 121 23 525
98 545 101 14 3 36 7 50 9 42 9 66 13 101 19 19 3 45 8 59 11 14 3 40 8 59 11
18 3 43 8 55 10 11 2 34 7 51 10 16 3 32 7 35 10 3 3 5 3070 5 6816 l0 6810
-45 37 c-25 21 -94 75 -155 121 -60 47 -166 127 -234 180 -68 52 -137 105
-155 118 -17 12 -38 28 -46 35 -8 7 -73 57 -145 111 -71 55 -148 115 -171 133
-43 34 -52 36 -119 22z"/>
</g>
</svg>
